<svg xmlns="http://www.w3.org/2000/svg" data-name="Layer 1" viewBox="0 0 512 640" x="0px" y="0px"><title>like</title><path d="M100.5,476.43l-39.07,0-24.16,0C26.06,476.37,16.19,472,9.47,464a48.37,48.37,0,0,1-6-9.43c-0.43-.82-0.83-1.6-1.18-2.21L0,448.31V248.71l1.4-3.29,0.49-1.17c0.47-1.12,1-2.4,1.63-3.75C10.26,226,23.35,218,40.39,218h0.08q32.68,0,65.37,0h64.89l-0.44,18c-0.25,10.13-.36,25-0.37,27.38h0c-0.35,33.21-.39,65.94-0.38,90.76,0,29.72,0,60.46.38,90.76,0,0.48,0,1.46,0,2.79,0,2.57,0,6.52.1,10.85l0.19,17.7-17.7.07C135.26,476.41,117.82,476.43,100.5,476.43ZM36.21,441.14a5.67,5.67,0,0,0,1.09.09l24.16,0c24,0,48.73,0,73.28,0-0.31-29.15-.32-58.57-0.33-87.05,0-24.81,0-57.53.37-90.79h0v-0.35h0c0-.8,0-1.55,0-2.21,0-1.77,0-4.25.07-7.09q0-.28,0-0.57h-29q-32.7,0-65.41,0H40.37c-4,0-4.29.69-5,2.2l-0.22.5v183.4C35.53,440,35.93,440.71,36.21,441.14Z"/><path d="M236.87,463.14a77.32,77.32,0,0,1-42.53-12.06l-8.26-5.22,0.07-9.77c0.34-46.23.48-96.65,0.45-158.68q0-21,0-41.95v-6.83l4.61-5c1.82-2.34,3.72-4.72,5.62-7.1,5.68-7.11,11-13.82,15.39-20.84,8.71-14,17.16-28.73,25.32-42.94,3.42-6,7-12.12,10.49-18.17a7.76,7.76,0,0,0,1.06-4.72c-0.41-9.87-.6-19.83-0.79-29.46-0.11-5.68-.23-11.54-0.39-17.28-0.47-17.28,8-31.36,23.81-39.63,18.71-9.78,39.28-10.46,59.48-2,12.15,5.1,20.77,14.21,25.6,27.08q2.12,5.64,4.29,11.28c3.89,10.18,7.9,20.71,11.55,31.32,5.86,17.05,6.65,35.75,2.43,57.17-1.26,6.41-2.33,12.8-3.41,19.45h10.3c23.75,0,48.31-.07,72.51.12a74,74,0,0,1,24,3.87c11.26,4,25.9,13.53,31.78,36.62,0.12,0.49.35,1.19,0.58,1.93l0.45,1.45,0.77,2.51v21l-1.87,2.45A65.25,65.25,0,0,1,500.76,279a63.59,63.59,0,0,1,2.36,14.1c0.38,12.81-3.31,25.07-11,36.54a55.57,55.57,0,0,1,2.09,11.59c0.86,13.7-2.78,27-10.83,39.62a73.4,73.4,0,0,1,1.25,21.88c-2,26.49-18.49,47.3-44.08,55.66-12.25,4-24.25,4.56-34.36,4.56l-44.82,0c-40.65,0-82.68-.08-124,0.17h-0.54Zm-15.49-37.7A44.71,44.71,0,0,0,237.2,428c41.43-.25,83.52-0.21,124.23-0.17l44.78,0c7.71,0,15.89-.34,23.43-2.81,12.12-4,19-12.57,20-24.92,0.48-6.21,0-10.68-1.39-14.5-2.94-7.9-.16-15.77,3.41-20.52,5.59-7.45,8-14.34,7.53-21.63-0.13-2.2-1.2-5.54-2.15-8.49-3.2-10.14.3-17.51,3.8-21.91,5-6.33,7.37-12.51,7.18-18.86a38.12,38.12,0,0,0-1.33-6.66c-0.5-2-1.07-4.24-1.52-6.63-1.8-9.54,1.41-15.55,4.42-18.91,3.53-3.94,5.75-8.75,7-15.15l0.07-.32q0.1-.47.23-0.93v-6c-0.24-.78-0.48-1.62-0.72-2.53h0c-2.18-8.55-6-10.93-9.38-12.13A39.86,39.86,0,0,0,454.17,223c-24-.19-48.52-0.15-72.19-0.12l-26.61,0c-3.39,0-11.32,0-17.13-6.87s-4.48-14.65-3.92-18c0.67-3.95,1.31-7.88,1.94-11.82,1.3-8.08,2.65-16.43,4.29-24.74,3-15.4,2.66-27.78-1.18-39-3.45-10.05-7.36-20.3-11.15-30.21q-2.18-5.72-4.35-11.44c-1.63-4.33-3.7-5.94-6.32-7-10.68-4.49-20.07-4.27-29.57.7-4.72,2.47-5,4.77-5,7.52,0.16,5.87.28,11.8,0.39,17.55,0.19,9.45.38,19.22,0.77,28.73a43.16,43.16,0,0,1-5.81,23.85c-3.48,6-7,12.09-10.39,18-8.31,14.47-16.91,29.42-25.93,44-5.45,8.79-11.73,16.64-17.79,24.24l-2.53,3.17q0,17.9,0,35.79C221.78,334.68,221.66,382.09,221.37,425.44Zm258.4-39.3,0,0.06Zm8.6-51.28,0,0Z"/><text x="0" y="527" fill="#000000" font-size="5px" font-weight="bold" font-family="'Helvetica Neue', Helvetica, Arial-Unicode, Arial, Sans-serif">Created by i cons</text><text x="0" y="532" fill="#000000" font-size="5px" font-weight="bold" font-family="'Helvetica Neue', Helvetica, Arial-Unicode, Arial, Sans-serif">from the Noun Project</text></svg>