<svg xmlns="http://www.w3.org/2000/svg" xmlns:xlink="http://www.w3.org/1999/xlink" version="1.1" x="0px" y="0px" viewBox="0 0 100 125" style="enable-background:new 0 0 100 100;" xml:space="preserve"><style type="text/css">
	.st0{fill:none;stroke:#000000;stroke-width:3.3;stroke-linecap:round;stroke-miterlimit:10;}
	.st1{fill:none;stroke:#000000;stroke-width:3.3;stroke-miterlimit:10;}
	.st2{fill:none;stroke:#000000;stroke-width:3;stroke-linecap:round;stroke-miterlimit:10;}
	.st3{fill:none;stroke:#000000;stroke-width:2.2;stroke-linecap:round;stroke-miterlimit:10;}
	.st4{fill:none;stroke:#000000;stroke-width:3.3;stroke-linecap:round;stroke-linejoin:round;stroke-miterlimit:10;}
</style><path d="M466.8-79.6c18.8,0,34.1,15.3,34.1,34.1s-15.3,34.1-34.1,34.1s-34.1-15.3-34.1-34.1S448-79.6,466.8-79.6   M466.8-85.1c-21.9,0-39.6,17.7-39.6,39.6s17.7,39.6,39.6,39.6s39.6-17.7,39.6-39.6S488.6-85.1,466.8-85.1L466.8-85.1z"/><path class="st0" d="M445-29.6c3.7-8.4,12-14.2,21.8-14.2c9.7,0,18.1,5.8,21.8,14.2"/><path d="M656.8-79.6c18.8,0,34.1,15.3,34.1,34.1s-15.3,34.1-34.1,34.1c-18.8,0-34.1-15.3-34.1-34.1  S638-79.6,656.8-79.6 M656.8-85.1c-21.9,0-39.6,17.7-39.6,39.6S635-5.9,656.8-5.9c21.9,0,39.6-17.7,39.6-39.6S678.7-85.1,656.8-85.1  L656.8-85.1z"/><g><path d="M645-58c0,3-1.8,4-4,4c-2.2,0-4-1-4-4H645z"/><path d="M676.9-58c0,3-1.8,4-4,4c-2.2,0-4-1-4-4H676.9z"/></g><g><circle cx="450.9" cy="-57.4" r="4"/><circle cx="482.8" cy="-57.4" r="4"/></g><g><path d="M50,15.9c18.8,0,34.1,15.3,34.1,34.1S68.8,84.1,50,84.1S15.9,68.8,15.9,50S31.2,15.9,50,15.9 M50,10.4   c-21.9,0-39.6,17.7-39.6,39.6S28.1,89.6,50,89.6S89.6,71.9,89.6,50S71.9,10.4,50,10.4L50,10.4z"/><g><path d="M50,75.2c-13.9,0-25-11.3-25-25.3v-2h50v2C75,63.9,63.9,75.2,50,75.2z M27.8,51C28.6,63,38.2,71.8,50,71.8    c11.8,0,21.4-8.8,22.2-20.8H27.8z"/></g><g><circle cx="34.2" cy="38.1" r="4"/><circle cx="66.1" cy="38.1" r="4"/></g></g><g><path d="M-82,15.9c18.8,0,34.1,15.3,34.1,34.1S-63.2,84.1-82,84.1c-18.8,0-34.1-15.3-34.1-34.1S-100.8,15.9-82,15.9    M-82,10.4c-21.9,0-39.6,17.7-39.6,39.6s17.7,39.6,39.6,39.6S-42.4,71.9-42.4,50S-60.1,10.4-82,10.4L-82,10.4z"/><g><path d="M-82,75.4c-14,0-25.4-11.4-25.4-25.4c0-0.9,0.7-1.6,1.6-1.6s1.6,0.7,1.6,1.6c0,12.2,9.9,22.1,22.1,22.1    s22.1-9.9,22.1-22.1c0-0.9,0.7-1.6,1.6-1.6s1.6,0.7,1.6,1.6C-56.6,64-68,75.4-82,75.4z"/></g><g><circle cx="-97.8" cy="38.1" r="4"/><circle cx="-65.9" cy="38.1" r="4"/></g></g><path class="st0" d="M639-37.6c4.4-4.9,10.7-8,17.8-8c7.1,0,13.5,3.1,17.8,8"/><path d="M209.8,217.6c18.8,0,34.1,15.3,34.1,34.1s-15.3,34.1-34.1,34.1s-34.1-15.3-34.1-34.1S191,217.6,209.8,217.6   M209.8,212.1c-21.9,0-39.6,17.7-39.6,39.6s17.7,39.6,39.6,39.6c21.9,0,39.6-17.7,39.6-39.6S231.6,212.1,209.8,212.1L209.8,212.1z"/><g><circle cx="193.9" cy="239.8" r="4"/><circle cx="225.8" cy="239.8" r="4"/></g><circle class="st1" cx="209.8" cy="261.5" r="10.9"/><path d="M268.8,102.6c18.8,0,34.1,15.3,34.1,34.1s-15.3,34.1-34.1,34.1s-34.1-15.3-34.1-34.1S250,102.6,268.8,102.6   M268.8,97.1c-21.9,0-39.6,17.7-39.6,39.6s17.7,39.6,39.6,39.6s39.6-17.7,39.6-39.6S290.6,97.1,268.8,97.1L268.8,97.1z"/><path class="st2" d="M245,143.5h47"/><g><circle cx="252.9" cy="124.8" r="4"/><circle cx="284.8" cy="124.8" r="4"/></g><path d="M466.8,102.6c18.8,0,34.1,15.3,34.1,34.1s-15.3,34.1-34.1,34.1s-34.1-15.3-34.1-34.1S448,102.6,466.8,102.6   M466.8,97.1c-21.9,0-39.6,17.7-39.6,39.6s17.7,39.6,39.6,39.6s39.6-17.7,39.6-39.6S488.6,97.1,466.8,97.1L466.8,97.1z"/><path d="M448.6,133.2c-1,0.7-1.6,1.9-1.6,3.2c0,2.2,1.8,4,4,4c1.8,0,3.3-1.2,3.8-2.9  C452.1,135.6,450.7,134.5,448.6,133.2z"/><path class="st0" d="M448.9,156.7c4.4-4.9,10.7-8,17.8-8c7.1,0,13.5,3.1,17.8,8"/><path d="M485,133.2c1,0.7,1.6,1.9,1.6,3.2c0,2.2-1.8,4-4,4c-1.8,0-3.3-1.2-3.8-2.9  C481.5,135.6,482.9,134.5,485,133.2z"/><g><path class="st3" d="M480,111.4c-4.7,6.8-6.8,2.6-9.3,0"/><path class="st3" d="M467.9,114.2c2.6,2.6,4.9,4.7,0,9.3"/><path class="st3" d="M470.7,126.3c3.2-7.5,6.8-2.6,9.3,0"/><path class="st3" d="M482.8,123.5c-6.1-3.8-2.6-6.8,0-9.3"/></g><path d="M656.8,102.2c6.7,0,13.2,2.1,18.9,5.9c5.7,3.8,10.2,9.3,12.8,15.7c7.1,17.4-1.4,37.4-18.8,44.5  c-4.1,1.7-8.4,2.5-12.8,2.5c-6.7,0-13.2-2-18.9-5.7c-5.8-3.8-10.2-9.2-12.8-15.6c-7.1-17.4,1.4-37.6,18.8-44.7  c4.1-1.7,8.4-2.8,12.8-2.8h0.2 M656.8,97.1c-4.9,0-10,0.9-14.9,2.9c-20.3,8.2-30,31.3-21.8,51.6c6.2,15.4,21.1,24.7,36.7,24.7  c4.9,0,10-0.9,14.9-2.9c20.3-8.2,30-31.3,21.8-51.6C687.3,106.4,672.5,97.1,656.8,97.1L656.8,97.1z"/><path class="st1" d="M678.8,127.7c5,12.2-0.9,26-13.1,30.9s-26-0.9-30.9-13.1L678.8,127.7z"/><polyline class="st4" points="632.6,129.5 641.4,130.1 636.4,136.7 "/><polyline class="st4" points="671.8,122.4 663,121.7 668,115.2 "/></svg>