<svg xmlns="http://www.w3.org/2000/svg" xmlns:xlink="http://www.w3.org/1999/xlink" version="1.1" x="0px" y="0px" viewBox="0 0 100 125" style="enable-background:new 0 0 100 100;" xml:space="preserve"><path d="M41.515,42.101H29.615V30.201h4v5.071l0.829-0.829c8.577-8.578,22.535-8.578,31.113,0C69.712,38.599,72,44.124,72,50h-4  c0-4.808-1.872-9.329-5.271-12.728c-7.021-7.019-18.439-7.017-25.457,0l-0.829,0.829h5.071V42.101z M58.485,61.899h5.072  l-0.828,0.829c-7.02,7.018-18.438,7.018-25.457,0C33.873,59.328,32,54.808,32,50h-4c0,5.876,2.289,11.401,6.444,15.557  C38.732,69.845,44.366,71.99,50,71.99s11.268-2.145,15.557-6.434l0.828-0.828v5.071h4V57.899H58.485V61.899z"/></svg>